# xmcd
#
# Track frame offsets: 
#        150
#        13832
#        28824
#        42585
#        59312
#        72890
#        86019
#        98759
#        112378
#        127895
#
# Disc length: 2064 seconds
#
# Revision: 0
# Processed by: cddbd v1.4PL0 Copyright (c) Steve Scherf et al.
# Submitted via: ExactAudioCopy v0.90b4
#
DISCID=8b080e0a
DTITLE=Anita Perras - Live (By Request)
DYEAR=1900
DGENRE=Country
TTITLE0=When Love Comes Around
TTITLE1=If I Were You
TTITLE2=Sparkle
TTITLE3=I Fall To Pieces
TTITLE4=This Country's Rockin'
TTITLE5=Climb That Mountain
TTITLE6=One Smokey Rose
TTITLE7=Cowboy's Sweetheart
TTITLE8=Tennessee Waltz
TTITLE9=Gospel Medley (Lean On Me - It's Not What You Know - Walkin' T
TTITLE9=hru Jerusalem)
EXTD=
EXTT0=
EXTT1=
EXTT2=
EXTT3=
EXTT4=
EXTT5=
EXTT6=
EXTT7=
EXTT8=
EXTT9=
PLAYORDER=
